<?xml version="1.0" encoding="utf-8"?>
<!-- Generator: Adobe Illustrator 25.3.0, SVG Export Plug-In . SVG Version: 6.00 Build 0)  -->
<svg version="1.1" xmlns="http://www.w3.org/2000/svg" xmlns:xlink="http://www.w3.org/1999/xlink" x="0px" y="0px"
	 viewBox="0 0 1366 768" style="enable-background:new 0 0 1366 768;" xml:space="preserve">
<style type="text/css">
	.st0{fill:url(#SVGID_1_);}
	.st1{fill:url(#SVGID_2_);}
	.st2{fill:url(#SVGID_3_);}
	.st3{fill:url(#SVGID_4_);stroke:url(#SVGID_5_);stroke-miterlimit:10;}
	.st4{fill:url(#SVGID_6_);stroke:url(#SVGID_7_);stroke-miterlimit:10;}
	.st5{fill:url(#SVGID_8_);stroke:url(#SVGID_9_);stroke-miterlimit:10;}
</style>
<g id="Capa_2">
	
		<radialGradient id="SVGID_1_" cx="653.5" cy="377.5" r="881.4811" gradientTransform="matrix(1 0 0 1.0178 0 -6.725)" gradientUnits="userSpaceOnUse">
		<stop  offset="0" style="stop-color:#9E005D"/>
		<stop  offset="0.0991" style="stop-color:#A00560;stop-opacity:0.8926"/>
		<stop  offset="0.2203" style="stop-color:#A41469;stop-opacity:0.7612"/>
		<stop  offset="0.3533" style="stop-color:#AC2D78;stop-opacity:0.6171"/>
		<stop  offset="0.4945" style="stop-color:#B7508D;stop-opacity:0.464"/>
		<stop  offset="0.6424" style="stop-color:#C57CA7;stop-opacity:0.3037"/>
		<stop  offset="0.7934" style="stop-color:#D6B2C7;stop-opacity:0.14"/>
		<stop  offset="0.9226" style="stop-color:#E6E6E6;stop-opacity:0"/>
	</radialGradient>
	<rect x="-83" y="-42" class="st0" width="1473" height="839"/>
</g>
<g id="Capa_1">
	
		<radialGradient id="SVGID_2_" cx="920.5012" cy="197.81" r="429.8747" fx="1326.8768" fy="57.6278" gradientUnits="userSpaceOnUse">
		<stop  offset="0" style="stop-color:#C1272D"/>
		<stop  offset="0.5495" style="stop-color:#558DFF"/>
		<stop  offset="0.5507" style="stop-color:#558DFE;stop-opacity:0.9974"/>
		<stop  offset="0.6461" style="stop-color:#5B6AD7;stop-opacity:0.7857"/>
		<stop  offset="0.7403" style="stop-color:#6050B9;stop-opacity:0.5764"/>
		<stop  offset="0.832" style="stop-color:#633CA3;stop-opacity:0.373"/>
		<stop  offset="0.9199" style="stop-color:#653195;stop-opacity:0.1778"/>
		<stop  offset="1" style="stop-color:#662D91;stop-opacity:0"/>
	</radialGradient>
	<path class="st1" d="M432,82c-17.21,41.96-42.18,74.71-52,87c-23.57,29.49-29.91,28.61-31,39c-4.94,46.89,121.4,90.46,117,102
		c-3.85,10.1-104.21-14.31-103-21c1.6-8.84,181.6,6.53,365,55c111.23,29.39,97.91,37.72,166,50c181.17,32.68,323.48-17.56,390-42
		c86.86-31.91,203.35-74.7,208-146c3.19-48.96-47.75-89.77-68-106c-49.99-40.06-106.52-52.93-229-61c-172.84-11.39-173.38,6.8-287-5
		C801.97,22.99,778.64,4.68,639-6c-82.23-6.29-165.1-6.9-191,37C439.94,44.66,445.77,48.43,432,82z"/>
	<radialGradient id="SVGID_3_" cx="844" cy="-72" r="0" gradientUnits="userSpaceOnUse">
		<stop  offset="0" style="stop-color:#C1272D"/>
		<stop  offset="0" style="stop-color:#558DFF"/>
		<stop  offset="1" style="stop-color:#662D91;stop-opacity:0"/>
	</radialGradient>
	<path class="st2" d="M844-72"/>
	
		<radialGradient id="SVGID_4_" cx="724.9771" cy="645.5791" r="377.0638" fx="1005.8746" fy="897.1217" gradientUnits="userSpaceOnUse">
		<stop  offset="0" style="stop-color:#C1272D"/>
		<stop  offset="0.1686" style="stop-color:#FFFA3F"/>
		<stop  offset="1" style="stop-color:#662D91;stop-opacity:0"/>
	</radialGradient>
	<radialGradient id="SVGID_5_" cx="724.9771" cy="645.5791" r="377.5533" gradientUnits="userSpaceOnUse">
		<stop  offset="0" style="stop-color:#C1272D"/>
		<stop  offset="0.852" style="stop-color:#662D91;stop-opacity:0"/>
	</radialGradient>
	<path class="st3" d="M333.5,539.5c42.91,62.79,22.72,108.16,49,167c2.38,5.32,15.92,34.87,44,60c45.92,41.1,102.51,45.15,144,49
		c154.84,14.36,232.26,21.54,308,51c95.04,36.97,117.17,80.33,181,70c42.56-6.89,90.36-35.49,106-80
		c25.77-73.33-48.78-152.74-66-170c-85.46-85.66-146.09-31.31-318-117c-143.23-71.39-231-140-231-140
		c-19.24-15.04-46.52-37.46-90-54c-49.08-18.66-144.93-39.77-173,1c-26.27,38.15,15.07,118.51,41,156
		C331.5,536.84,330.95,535.76,333.5,539.5z"/>
	
		<radialGradient id="SVGID_6_" cx="189.4271" cy="243.3413" r="339.713" fx="-81.4095" fy="251.6025" gradientTransform="matrix(1 0 0 1.4003 0 -97.399)" gradientUnits="userSpaceOnUse">
		<stop  offset="0" style="stop-color:#C1272D"/>
		<stop  offset="0.483" style="stop-color:#FF7BAC;stop-opacity:0.7458"/>
		<stop  offset="1" style="stop-color:#662D91;stop-opacity:0"/>
	</radialGradient>
	<radialGradient id="SVGID_7_" cx="189.4271" cy="243.3413" r="320.9644" gradientUnits="userSpaceOnUse">
		<stop  offset="0" style="stop-color:#C1272D"/>
		<stop  offset="0.852" style="stop-color:#662D91;stop-opacity:0"/>
	</radialGradient>
	<path class="st4" d="M243.5,520.5c8.17,12.81,231.4-64.25,243-177c1.53-14.83-11.65-47.22-38-112c-36.53-89.8-44.94-93.67-67-153
		c-35.9-96.56-22.44-110.06-49-137c-50.18-50.89-136.12-41.18-182-36c-43.26,4.89-144.74,16.35-181,85
		c-25.22,47.74,8.11,72.02,2,157c-8.89,123.61-84.28,139.85-79,233c4.63,81.7,67.97,163.34,148,192c6.39,2.29,98.95,34.05,162-11
		c29.86-21.34,53.64-60.29,54-60C256.75,501.7,241.01,516.6,243.5,520.5z"/>
	<radialGradient id="SVGID_8_" cx="379.5" cy="869.5" r="0" gradientUnits="userSpaceOnUse">
		<stop  offset="0" style="stop-color:#C1272D"/>
		<stop  offset="0" style="stop-color:#552EFF"/>
		<stop  offset="1" style="stop-color:#662D91;stop-opacity:0"/>
	</radialGradient>
	<radialGradient id="SVGID_9_" cx="379.5" cy="869.5" r="0" gradientUnits="userSpaceOnUse">
		<stop  offset="0" style="stop-color:#C1272D"/>
		<stop  offset="0.852" style="stop-color:#662D91;stop-opacity:0"/>
	</radialGradient>
	<path class="st5" d="M379.5,869.5"/>
</g>
</svg>
